<svg xmlns="http://www.w3.org/2000/svg" xmlns:xlink="http://www.w3.org/1999/xlink" style="margin:auto;background:#fff;display:block;shape-rendering:auto" width="200" height="200" preserveAspectRatio="xMidYMid" viewBox="0 0 100 100"><g transform="rotate(0 50 50)"><rect width="8" height="18" x="46" y="19" fill="#003459" rx="4" ry="9"><animate attributeName="opacity" begin="-1.2910798122065725s" dur="1.408450704225352s" keyTimes="0;1" repeatCount="indefinite" values="1;0"/></rect></g><g transform="rotate(30 50 50)"><rect width="8" height="18" x="46" y="19" fill="#003459" rx="4" ry="9"><animate attributeName="opacity" begin="-1.1737089201877933s" dur="1.408450704225352s" keyTimes="0;1" repeatCount="indefinite" values="1;0"/></rect></g><g transform="rotate(60 50 50)"><rect width="8" height="18" x="46" y="19" fill="#003459" rx="4" ry="9"><animate attributeName="opacity" begin="-1.056338028169014s" dur="1.408450704225352s" keyTimes="0;1" repeatCount="indefinite" values="1;0"/></rect></g><g transform="rotate(90 50 50)"><rect width="8" height="18" x="46" y="19" fill="#003459" rx="4" ry="9"><animate attributeName="opacity" begin="-0.9389671361502346s" dur="1.408450704225352s" keyTimes="0;1" repeatCount="indefinite" values="1;0"/></rect></g><g transform="rotate(120 50 50)"><rect width="8" height="18" x="46" y="19" fill="#003459" rx="4" ry="9"><animate attributeName="opacity" begin="-0.8215962441314553s" dur="1.408450704225352s" keyTimes="0;1" repeatCount="indefinite" values="1;0"/></rect></g><g transform="rotate(150 50 50)"><rect width="8" height="18" x="46" y="19" fill="#003459" rx="4" ry="9"><animate attributeName="opacity" begin="-0.7042253521126759s" dur="1.408450704225352s" keyTimes="0;1" repeatCount="indefinite" values="1;0"/></rect></g><g transform="rotate(180 50 50)"><rect width="8" height="18" x="46" y="19" fill="#003459" rx="4" ry="9"><animate attributeName="opacity" begin="-0.5868544600938966s" dur="1.408450704225352s" keyTimes="0;1" repeatCount="indefinite" values="1;0"/></rect></g><g transform="rotate(210 50 50)"><rect width="8" height="18" x="46" y="19" fill="#003459" rx="4" ry="9"><animate attributeName="opacity" begin="-0.4694835680751173s" dur="1.408450704225352s" keyTimes="0;1" repeatCount="indefinite" values="1;0"/></rect></g><g transform="rotate(240 50 50)"><rect width="8" height="18" x="46" y="19" fill="#003459" rx="4" ry="9"><animate attributeName="opacity" begin="-0.35211267605633795s" dur="1.408450704225352s" keyTimes="0;1" repeatCount="indefinite" values="1;0"/></rect></g><g transform="rotate(270 50 50)"><rect width="8" height="18" x="46" y="19" fill="#003459" rx="4" ry="9"><animate attributeName="opacity" begin="-0.23474178403755866s" dur="1.408450704225352s" keyTimes="0;1" repeatCount="indefinite" values="1;0"/></rect></g><g transform="rotate(300 50 50)"><rect width="8" height="18" x="46" y="19" fill="#003459" rx="4" ry="9"><animate attributeName="opacity" begin="-0.11737089201877933s" dur="1.408450704225352s" keyTimes="0;1" repeatCount="indefinite" values="1;0"/></rect></g><g transform="rotate(330 50 50)"><rect width="8" height="18" x="46" y="19" fill="#003459" rx="4" ry="9"><animate attributeName="opacity" begin="0s" dur="1.408450704225352s" keyTimes="0;1" repeatCount="indefinite" values="1;0"/></rect></g></svg>